# xmcd
#
# Track frame offsets: 
#        182
#        15005
#        25740
#        39432
#        56580
#        76607
#        92540
#        108250
#        124467
#        139075
#
# Disc length: 2047 seconds
#
# Revision: 4
# Processed by: cddbd v1.5PL3 Copyright (c) Steve Scherf et al.
# Submitted via: ExactAudioCopy v0.95a3
#
DISCID=6a07fd0a
DTITLE=Lisa Brokop - Lisa Brokop
DYEAR=1996
DGENRE=Country
TTITLE0=Language Of Love
TTITLE1=Before He Kissed Me
TTITLE2=She Can't Have Him
TTITLE3=I Know A Heartache When I See One
TTITLE4=Now That We're Not A Family
TTITLE5=West Of Crazy
TTITLE6=I Know Too Much
TTITLE7=At The End Of The Day
TTITLE8=That Summer
TTITLE9=From The Heart
EXTD=
EXTT0=
EXTT1=
EXTT2=
EXTT3=
EXTT4=
EXTT5=
EXTT6=
EXTT7=
EXTT8=
EXTT9=
PLAYORDER=
